<svg width="39" height="21" viewBox="0 0 39 21" fill="none" xmlns="http://www.w3.org/2000/svg">
<g clip-path="url(#clip0_211_2081)">
<path d="M38.8874 7.48028C38.8914 7.45126 38.8914 7.42192 38.8874 7.39289C38.8912 7.36924 38.8912 7.34513 38.8874 7.32142L38.6038 5.2801C38.5629 5.03587 38.4535 4.80761 38.2878 4.62084L38.2392 4.56523L38.1501 4.47786L33.2403 0.331668L33.3781 0.466708C33.2654 0.334536 33.1239 0.228816 32.9641 0.157336C32.8043 0.0858551 32.6301 0.0504302 32.4545 0.0536743H30.9637C30.7213 0.0489656 30.4844 0.124525 30.2912 0.268136C30.0884 0.12539 29.8441 0.0502171 29.5944 0.0536743H28.1037C27.9081 0.0505644 27.7153 0.098136 27.5446 0.191587C27.3738 0.285037 27.2313 0.421048 27.1315 0.585845C26.9775 0.821223 26.9196 1.10482 26.9694 1.38014L27.1558 2.66688C27.0323 2.59827 26.8926 2.56267 26.7506 2.56363H19.5318C19.2728 2.56523 19.0198 2.63965 18.8026 2.77808C18.5926 2.90694 18.4241 3.09144 18.3165 3.31025L17.7575 2.84163C17.5374 2.64204 17.247 2.53386 16.9473 2.5398H5.62073C5.36081 2.54444 5.10666 2.61563 4.88347 2.74632C4.57813 2.92153 4.35435 3.20642 4.2596 3.5406L0.662334 15.3358C0.59512 15.5302 0.588508 15.7398 0.643345 15.9378C0.698182 16.1359 0.811983 16.3135 0.970212 16.4478C1.01144 16.4821 1.05473 16.5139 1.09985 16.5431C1.09985 16.5431 1.02692 16.4954 0.986407 16.4558L5.89622 20.6099C6.10391 20.7974 6.37546 20.9021 6.65775 20.9038H18.0735C18.3342 20.8971 18.5885 20.8232 18.8107 20.6893C18.9364 20.622 19.0489 20.5332 19.1429 20.4272L19.1834 20.3716L19.2482 20.2922L19.2968 20.2048L19.8316 20.6576C20.0363 20.8376 20.3019 20.9366 20.577 20.9356H32.0169C32.2773 20.927 32.5312 20.8532 32.7542 20.7211C32.8771 20.6496 32.9889 20.5613 33.0864 20.459L33.1269 20.4034L33.1917 20.324C33.2261 20.2737 33.256 20.2205 33.2808 20.1651C33.3073 20.1169 33.329 20.0664 33.3456 20.0142L36.6269 9.24362V9.14829C36.631 9.11133 36.631 9.07406 36.6269 9.0371V8.96563C36.6308 8.94193 36.6308 8.91781 36.6269 8.89411C36.6306 8.84388 36.6306 8.79345 36.6269 8.74318H37.6802C37.7718 8.75143 37.864 8.75143 37.9556 8.74318H38.0286C38.0879 8.72585 38.145 8.70183 38.1987 8.67171H38.2798L38.4256 8.56052L38.4904 8.51285L38.6038 8.36986V8.32225L38.6848 8.1872C38.6803 8.16094 38.6803 8.13405 38.6848 8.10779C38.6805 8.0949 38.6805 8.08096 38.6848 8.06806C38.7021 8.0215 38.7156 7.97368 38.7253 7.92507C38.7216 7.90941 38.7216 7.89307 38.7253 7.87741C38.7214 7.85376 38.7214 7.82959 38.7253 7.80594C38.7253 7.80594 38.8874 7.49615 38.8874 7.48028Z" fill="black"/>
<path d="M17.2795 3.44532C17.3225 3.48346 17.3525 3.53359 17.3656 3.58898C17.3786 3.64437 17.374 3.70235 17.3524 3.75509L13.7633 15.5424C13.7181 15.671 13.6256 15.7786 13.504 15.8442C13.405 15.9091 13.2905 15.9474 13.1718 15.9554H1.76424C1.66682 15.9508 1.57452 15.9112 1.50497 15.8442C1.4636 15.8067 1.43456 15.7579 1.42157 15.7042C1.40858 15.6504 1.41224 15.5941 1.43206 15.5424L5.02933 3.75509C5.07077 3.62478 5.16033 3.51431 5.28048 3.44532C5.38107 3.38509 5.49506 3.34966 5.61267 3.34206H17.0202C17.1169 3.34298 17.2095 3.3799 17.2795 3.44532ZM11.3245 13.1674L13.4716 6.13001H7.45993L5.32099 13.1674H11.3245ZM28.1685 3.56446C28.2074 3.60881 28.2561 3.64397 28.3108 3.66735C28.3655 3.69073 28.4248 3.70172 28.4845 3.69949H29.9671C30.0236 3.70003 30.0792 3.68646 30.1289 3.66006C30.1785 3.63365 30.2204 3.59528 30.2507 3.54858C30.277 3.5121 30.2956 3.4708 30.3054 3.42713C30.3151 3.38347 30.3158 3.33834 30.3074 3.29441L30.0157 1.19748C29.988 1.10043 29.9381 1.01082 29.87 0.935366C29.831 0.891023 29.7824 0.855858 29.7277 0.83248C29.6729 0.809103 29.6136 0.798119 29.5539 0.800337H28.0713C28.0148 0.7998 27.9592 0.813373 27.9096 0.839778C27.8599 0.866184 27.818 0.904549 27.7877 0.951257C27.731 1.06245 27.7067 1.13394 27.731 1.19748L28.0308 3.29441C28.0462 3.39651 28.0944 3.49112 28.1685 3.56446ZM32.8758 1.1816C32.848 1.08454 32.7981 0.994927 32.7299 0.91948C32.6926 0.875299 32.6454 0.840144 32.592 0.816725C32.5387 0.793311 32.4805 0.782264 32.422 0.784451H30.9313C30.8758 0.782901 30.8208 0.796109 30.7723 0.822676C30.7238 0.849243 30.6836 0.888188 30.6558 0.935366C30.6019 1.00583 30.5786 1.09435 30.591 1.1816L30.8907 3.27852C30.9096 3.37955 30.9573 3.47322 31.0285 3.54858C31.0681 3.59205 31.1169 3.62663 31.1714 3.64993C31.226 3.67324 31.285 3.68472 31.3445 3.6836H32.8352C32.8906 3.68432 32.9452 3.67076 32.9935 3.64427C33.0419 3.61778 33.0823 3.57931 33.1107 3.5327C33.1389 3.49716 33.1586 3.45588 33.1684 3.4119C33.1783 3.36792 33.1779 3.32235 33.1674 3.27852L32.8758 1.1816ZM26.8641 4.35875L26.7182 3.32618H19.5318C19.419 3.33227 19.3098 3.36794 19.2158 3.42943C19.1562 3.46134 19.1042 3.50555 19.0637 3.55903C19.0231 3.61252 18.9949 3.67398 18.9809 3.73921L18.3813 5.70903C18.3574 5.75826 18.3492 5.81349 18.3579 5.86737C18.3666 5.92125 18.3917 5.97126 18.4299 6.01088C18.4983 6.07384 18.5874 6.11054 18.6811 6.11414H27.4151L25.268 13.1516H16.5584C16.4461 13.1541 16.3367 13.1871 16.2425 13.2468C16.1279 13.3182 16.0442 13.4285 16.0075 13.5566L15.3998 15.5265C15.38 15.577 15.3748 15.6319 15.3848 15.6852C15.3948 15.7385 15.4196 15.788 15.4565 15.8283C15.5227 15.8955 15.6126 15.9352 15.7077 15.9395H27.1477C27.266 15.9295 27.38 15.8913 27.4798 15.8283C27.5995 15.7624 27.6892 15.6546 27.731 15.5265L31.0204 4.7559H27.3178C27.259 4.75703 27.2007 4.74634 27.1464 4.72448C27.092 4.70262 27.0428 4.67005 27.0019 4.62881C26.9349 4.55678 26.8875 4.46937 26.8641 4.37464V4.35875Z" fill="white"/>
</g>
<defs>
<clipPath id="clip0_211_2081">
<rect width="38.2838" height="20.8821" fill="white" transform="translate(0.606567 0.0534668)"/>
</clipPath>
</defs>
</svg>
