<svg width="28" height="29" viewBox="0 0 28 29" fill="none" xmlns="http://www.w3.org/2000/svg">
<g clip-path="url(#clip0_211_2047)">
<path fill-rule="evenodd" clip-rule="evenodd" d="M6.97907 0.679688C10.8233 0.679688 13.9398 3.79609 13.9398 7.64038V0.679688H20.9005C24.7447 0.679688 27.8612 3.79609 27.8612 7.64038C27.8612 11.4846 24.7447 14.6011 20.9005 14.6011C24.7447 14.6011 27.8612 17.7175 27.8612 21.5618C27.8612 23.4706 27.0928 25.2 25.8485 26.4575L25.8224 26.4837L25.7993 26.5067C24.5415 27.7528 22.8109 28.5225 20.9005 28.5225C19.003 28.5225 17.2829 27.7633 16.0273 26.5321C16.011 26.516 15.9947 26.4999 15.9785 26.4837C15.9632 26.4685 15.9481 26.4532 15.933 26.4378C14.7001 25.182 13.9398 23.4606 13.9398 21.5618C13.9398 25.406 10.8233 28.5225 6.97907 28.5225C3.13478 28.5225 0.0183716 25.406 0.0183716 21.5618V14.6011H6.97907C3.13478 14.6011 0.0183716 11.4846 0.0183716 7.64038C0.0183716 3.79609 3.13478 0.679688 6.97907 0.679688ZM12.5476 7.64038C12.5476 10.7158 10.0545 13.2089 6.97907 13.2089V2.07183C10.0545 2.07183 12.5476 4.56495 12.5476 7.64038ZM26.469 21.5618C26.469 18.4863 23.9759 15.9932 20.9005 15.9932C17.825 15.9932 15.3319 18.4863 15.3319 21.5618H26.469ZM1.41051 15.9932V21.5618C1.41051 24.6372 3.90364 27.1303 6.97907 27.1303C10.0545 27.1303 12.5476 24.6372 12.5476 21.5618V15.9932H1.41051ZM15.3319 13.2089V2.07183H20.9005C23.9759 2.07183 26.469 4.56495 26.469 7.64038C26.469 10.7158 23.9759 13.2089 20.9005 13.2089H15.3319Z" fill="#263238"/>
</g>
<defs>
<clipPath id="clip0_211_2047">
<rect width="27.8428" height="27.8428" fill="white" transform="translate(0.0183716 0.679688)"/>
</clipPath>
</defs>
</svg>
