<svg width="46" height="40" viewBox="0 0 46 40" fill="none" xmlns="http://www.w3.org/2000/svg">
<path d="M45.6658 27.4136C45.6658 34.3333 40.0562 39.9429 33.1365 39.9429L14.3426 39.9429C12.4205 39.9429 10.8623 38.3847 10.8623 36.4625L10.8623 12.7962C10.8623 8.95187 13.9787 5.83547 17.823 5.83547L42.1854 5.83547C44.1076 5.83547 45.6658 7.39367 45.6658 9.31581L45.6658 27.4136Z" fill="#E8F5E9"/>
<path d="M20.1282 17.4212C19.9605 17.4212 19.8049 17.3751 19.6667 17.301V17.3029C19.6667 17.5666 19.5642 17.8143 19.3782 17.9998C19.1923 18.1857 18.9448 18.2882 18.6814 18.2882C18.5113 18.2882 18.3537 18.241 18.214 18.1649C18.1999 18.4061 18.1035 18.6316 17.9315 18.8038C17.7455 18.9898 17.498 19.0923 17.2345 19.0923C16.7108 19.0923 16.2856 18.6807 16.2549 18.1647C16.0929 18.2523 15.9097 18.2982 15.7208 18.2861C15.2057 18.2523 14.8023 17.8072 14.8023 17.2726V12.841L14.2977 13.7152C14.1055 14.0496 13.7457 14.2572 13.3583 14.2572C13.1696 14.2572 12.9831 14.2077 12.818 14.113C12.6123 13.9938 12.4652 13.8024 12.404 13.5735C12.3425 13.3444 12.3744 13.1048 12.4932 12.8995C12.4934 12.8995 14.1443 10.0406 14.245 9.86496C14.257 9.83856 14.2911 9.76197 14.3201 9.6967C14.3479 9.63439 14.3716 9.57043 14.3944 9.50614C14.8923 8.10058 16.1251 7.22748 17.6118 7.22748C19.5425 7.22748 21.1132 8.93069 21.1132 11.0243L21.1134 16.4357C21.1134 16.6991 21.011 16.9466 20.8252 17.1327C20.6393 17.3187 20.3918 17.4212 20.1281 17.4212L20.1282 17.4212ZM17.6118 7.75103C16.3343 7.75103 15.3161 8.47261 14.8879 9.68124C14.8605 9.75798 14.832 9.83473 14.7987 9.90951C14.7021 10.1261 14.7021 10.1261 14.6749 10.1573L14.6713 10.1542C14.5365 10.4085 14.136 11.1021 12.9466 13.1615C12.8977 13.2459 12.8847 13.344 12.9097 13.4378C12.9349 13.5316 12.9954 13.6107 13.0792 13.659C13.3393 13.8084 13.6955 13.712 13.8438 13.4537L14.8374 11.7334C14.8968 11.6309 15.0168 11.5806 15.1319 11.6117C15.2464 11.6424 15.3259 11.7462 15.3259 11.8646V17.2727C15.3259 17.5279 15.5185 17.7482 15.7551 17.7637C15.8916 17.7709 16.0188 17.7252 16.1144 17.6297C16.2013 17.5428 16.2492 17.4271 16.2492 17.3032V13.7663C16.2492 13.6216 16.3665 13.5044 16.5111 13.5044C16.6558 13.5044 16.773 13.6214 16.773 13.7663L16.7729 18.1072C16.7729 18.3617 16.98 18.5688 17.2345 18.5688C17.3581 18.5688 17.4742 18.5209 17.5613 18.434C17.6482 18.347 17.6961 18.2308 17.6961 18.1072V13.7662C17.6961 13.6216 17.8132 13.5043 17.958 13.5043C18.1027 13.5043 18.2199 13.6214 18.2199 13.7662L18.2198 17.2626V17.3032C18.2198 17.5576 18.4269 17.7647 18.6816 17.7647C18.8051 17.7647 18.9208 17.7166 19.0084 17.6294C19.0953 17.5426 19.1432 17.4269 19.1432 17.3031V13.7661C19.1432 13.6214 19.2603 13.5042 19.4051 13.5042C19.5497 13.5042 19.667 13.6213 19.667 13.7661L19.6667 16.4359C19.6667 16.6906 19.8738 16.8977 20.1281 16.8977C20.2519 16.8977 20.3677 16.8496 20.4546 16.7629C20.5419 16.6756 20.5896 16.5595 20.5896 16.4359L20.5898 11.0244C20.5898 9.21966 19.2539 7.75108 17.6118 7.75108L17.6118 7.75103Z" fill="#103E13"/>
<path d="M9.83847 21.1823L13.6388 18.9025C14.097 18.6273 14.6866 18.7443 14.9804 19.1688C15.0877 19.3235 15.1425 19.5037 15.151 19.6872C15.2927 19.6133 15.4468 19.5731 15.6038 19.5731C15.6841 19.5731 15.7648 19.5831 15.8445 19.6029C16.0998 19.6667 16.315 19.8263 16.4503 20.0519C16.5858 20.2779 16.6253 20.5427 16.5615 20.7978C16.5026 21.0338 16.3591 21.2324 16.1595 21.3687C16.2991 21.451 16.4195 21.5633 16.5051 21.7063C16.6405 21.9323 16.6801 22.197 16.6164 22.4523C16.5526 22.7073 16.3931 22.9225 16.1671 23.0581L16.1658 23.059C16.3029 23.1411 16.4211 23.2523 16.5057 23.3932C16.6414 23.6192 16.6809 23.884 16.6171 24.1393C16.5531 24.3945 16.3936 24.6096 16.1679 24.7451L11.5276 27.5289C10.6616 28.0483 9.66041 28.2275 8.70892 28.0332C7.74892 27.8371 6.95386 27.2853 6.47044 26.4794C5.7054 25.2043 5.82005 23.6979 6.76907 22.5481C6.81253 22.4956 6.85533 22.4422 6.8942 22.3867C6.93536 22.3282 6.98341 22.2593 6.99981 22.2357C7.09804 22.0602 8.70092 19.1723 8.70075 19.1727C8.86262 18.8806 9.166 18.7153 9.47889 18.7154C9.62485 18.7154 9.77293 18.7513 9.90954 18.8271C10.0745 18.9193 10.2131 19.0536 10.31 19.2154C10.5093 19.5475 10.5163 19.9631 10.3287 20.2994L9.83847 21.1823ZM9.86126 19.4847C9.81042 19.3999 9.74056 19.3323 9.65512 19.2844C9.4785 19.1867 9.25613 19.2503 9.15889 19.4263C8.01194 21.4926 7.62096 22.1968 7.47008 22.4474L7.47352 22.4482C7.4609 22.4902 7.4609 22.4902 7.32282 22.6874C7.27591 22.7542 7.22491 22.8183 7.17293 22.8815C6.35688 23.8702 6.26213 25.1144 6.91923 26.21C7.32626 26.8886 7.99897 27.3538 8.8135 27.5201C9.6369 27.6876 10.5048 27.5318 11.258 27.0798L15.8987 24.2959C16.0046 24.2324 16.0794 24.1316 16.1093 24.012C16.1391 23.8927 16.1206 23.7685 16.0569 23.6626C15.9261 23.4445 15.6419 23.3728 15.4238 23.5042L13.1344 24.8776C13.0105 24.9521 12.8494 24.912 12.7751 24.7879C12.7007 24.6639 12.7409 24.503 12.8648 24.4286L15.1543 23.0551L15.8979 22.6091C16.0038 22.5455 16.0788 22.4446 16.1086 22.3254C16.1385 22.2058 16.1199 22.0815 16.0563 21.9758C15.9253 21.7575 15.6411 21.6865 15.4231 21.8173L12.3901 23.6368C12.2658 23.7115 12.1052 23.6711 12.0308 23.5471C11.9563 23.4232 11.9967 23.2623 12.1205 23.1878L15.8429 20.9548C15.9489 20.8911 16.0237 20.7904 16.0535 20.6709C16.0834 20.5515 16.0648 20.4274 16.0014 20.3214C15.9379 20.2156 15.837 20.1409 15.7175 20.111C15.5973 20.0812 15.4736 20.0997 15.368 20.163L14.6789 20.5764C14.6788 20.5764 14.6788 20.5766 14.6786 20.5766H14.6784L11.6456 22.3961C11.5213 22.4709 11.3605 22.4305 11.2863 22.3064C11.2118 22.1824 11.2521 22.0215 11.376 21.9471L14.409 20.1276C14.5149 20.064 14.5899 19.9631 14.6197 19.8439C14.6525 19.713 14.6276 19.5792 14.5499 19.467C14.4151 19.272 14.1268 19.2202 13.9082 19.3516L9.27083 22.1336C9.16932 22.1942 9.03927 22.1795 8.95416 22.0973C8.86889 22.015 8.8497 21.8856 8.90709 21.7821L9.87138 20.0448C9.96814 19.8711 9.96436 19.6566 9.86121 19.4847L9.86126 19.4847Z" fill="#103E13"/>
<path d="M27.9983 26.4793C27.515 27.2853 26.7201 27.837 25.76 28.0331C24.8083 28.2271 23.8075 28.0482 22.9412 27.5288L18.3005 24.7449C18.0747 24.6094 17.915 24.3943 17.851 24.1388C17.7876 23.8837 17.8273 23.6189 17.9626 23.3932C18.047 23.2522 18.1654 23.141 18.3027 23.0589L18.3014 23.058C18.0755 22.9226 17.9158 22.7074 17.8522 22.4522C17.7882 22.1971 17.8279 21.932 17.9634 21.7061C18.0506 21.561 18.1702 21.4475 18.3066 21.367C18.1085 21.2307 17.9658 21.0327 17.9071 20.7979C17.8432 20.5426 17.8829 20.2777 18.0183 20.052C18.1536 19.8262 18.3689 19.6667 18.6241 19.6029C18.7038 19.5829 18.7847 19.573 18.8647 19.573C19.0218 19.5732 19.176 19.613 19.3176 19.6872C19.3263 19.5037 19.3809 19.3234 19.4882 19.1688C19.7822 18.7445 20.3713 18.6271 20.8302 18.9024L24.6304 21.1819L24.1405 20.2996C23.9526 19.9628 23.9595 19.5472 24.1587 19.215C24.2558 19.0533 24.3945 18.919 24.5603 18.826C24.6966 18.7506 24.8442 18.7148 24.9898 18.7148C25.3026 18.715 25.6063 18.88 25.768 19.1721C26.3314 20.1873 27.3948 22.1021 27.4695 22.2358C27.4854 22.2589 27.5335 22.3278 27.5747 22.3863C27.6138 22.4419 27.6562 22.495 27.6999 22.5479C28.6488 23.6981 28.7633 25.2044 27.9983 26.4793L27.9983 26.4793ZM27.2959 22.8816C27.2438 22.8185 27.1926 22.754 27.146 22.6876C27.0043 22.4865 27.0007 22.4813 26.9901 22.4287C26.8244 22.1546 26.4204 21.4272 25.3097 19.4261C25.2122 19.2505 24.9909 19.1863 24.8146 19.2838C24.7278 19.3323 24.6581 19.4 24.6073 19.4848C24.5043 19.6565 24.5004 19.871 24.5976 20.0452L25.5616 21.782C25.6191 21.8857 25.5999 22.0149 25.5148 22.0972C25.4299 22.1797 25.3 22.1941 25.198 22.1335L20.5606 19.3515C20.342 19.2204 20.0539 19.2718 19.9188 19.4669C19.841 19.5791 19.8163 19.7129 19.8487 19.8436C19.8786 19.963 19.9535 20.0637 20.0596 20.1273C20.06 20.1275 20.0601 20.1278 20.0605 20.128L23.0925 21.947C23.2165 22.0214 23.2567 22.1821 23.1822 22.3063C23.1078 22.4301 22.9472 22.4706 22.8229 22.396L19.1005 20.1629C18.9948 20.0996 18.8705 20.0809 18.7512 20.1109C18.6314 20.1408 18.5308 20.2156 18.4673 20.3217C18.4037 20.4274 18.3853 20.5516 18.4148 20.671C18.4447 20.7904 18.5196 20.8912 18.6255 20.9548L19.3499 21.3893L22.3478 23.188C22.4718 23.2624 22.512 23.4231 22.4375 23.5473C22.3631 23.6711 22.2025 23.7114 22.0782 23.637L19.0455 21.8175C18.8274 21.6863 18.5434 21.7574 18.4122 21.9759C18.3486 22.0818 18.3302 22.206 18.3597 22.3253C18.3896 22.4447 18.4645 22.5454 18.5706 22.6092L19.3141 23.0553L21.6033 24.4287C21.7273 24.5032 21.7675 24.6639 21.693 24.788C21.6186 24.9118 21.458 24.9525 21.3337 24.8777L19.0445 23.5043C18.9389 23.441 18.8151 23.4223 18.6951 23.4523C18.5757 23.4821 18.4747 23.5569 18.4112 23.6627C18.3477 23.7686 18.3292 23.8929 18.3587 24.0122C18.3886 24.1316 18.4635 24.2322 18.5696 24.296L23.2103 27.08C23.9634 27.5318 24.8319 27.6882 25.6548 27.5203C26.4692 27.354 27.1419 26.8887 27.5489 26.2101C28.2067 25.1143 28.1121 23.87 27.2962 22.8816L27.2959 22.8816Z" fill="#103E13"/>
</svg>
