<svg width="46" height="40" viewBox="0 0 46 40" fill="none" xmlns="http://www.w3.org/2000/svg">
<path d="M45.9187 27.4136C45.9187 34.3333 40.3092 39.9429 33.3894 39.9429L14.5956 39.9429C12.6734 39.9429 11.1152 38.3847 11.1152 36.4625L11.1152 12.7962C11.1152 8.95187 14.2316 5.83547 18.0759 5.83547L42.4384 5.83547C44.3605 5.83547 45.9187 7.39367 45.9187 9.31581L45.9187 27.4136Z" fill="#E8F5E9"/>
<path d="M17.3728 7.92358C14.887 7.92358 12.8633 9.96577 12.8633 12.4622C12.8633 14.0415 13.6743 15.4359 14.8988 16.2487C13.4198 16.7432 12.14 17.6675 11.2013 18.8767C10.6824 18.4775 10.1025 18.1565 9.47735 17.9265C10.4253 17.2227 11.0448 16.0922 11.0448 14.8216C11.0448 12.7043 9.33239 10.9711 7.22795 10.9711C5.12352 10.9711 3.41113 12.7043 3.41113 14.8216C3.41113 16.0929 4.03112 17.2239 4.97987 17.9277C2.46805 18.8546 0.674133 21.2813 0.674133 24.1373V26.1435C0.67439 26.2964 0.735566 26.443 0.844036 26.5507C0.952505 26.6586 1.09928 26.7188 1.25222 26.7183H10.054C10.0753 26.7206 10.0967 26.7218 10.118 26.7216H24.6282C24.6495 26.7218 24.6711 26.7206 24.6922 26.7183H33.4946C33.811 26.717 34.0673 26.4602 34.068 26.1435V24.1373C34.068 21.2813 32.2772 18.8546 29.7667 17.9274C30.7155 17.2239 31.3355 16.0927 31.3355 14.8214C31.3355 12.7041 29.6231 10.9708 27.5186 10.9708C25.4143 10.9708 23.7018 12.7041 23.7018 14.8214C23.7018 16.0919 24.3215 17.2226 25.2695 17.9262C24.6431 18.1568 24.0629 18.4788 23.5432 18.879C22.605 17.6691 21.327 16.7435 19.848 16.2487C21.0723 15.4359 21.8836 14.0415 21.8836 12.4622C21.8836 9.96577 19.8588 7.92358 17.373 7.92358H17.3728ZM17.3728 9.07513C19.232 9.07513 20.7308 10.584 20.7308 12.4622C20.7308 14.3257 19.2554 15.8199 17.4168 15.8439C17.4021 15.8439 17.3877 15.8418 17.3728 15.8418C17.3579 15.8418 17.3438 15.8439 17.3289 15.8439C15.4903 15.8202 14.0158 14.3258 14.0158 12.4622C14.0158 10.5837 15.5134 9.07513 17.3726 9.07513H17.3728ZM7.22802 12.1226C8.70319 12.1226 9.89329 13.3199 9.89329 14.8216C9.89329 16.3132 8.71858 17.5053 7.2573 17.5215C7.24753 17.5215 7.23802 17.5205 7.228 17.5205C7.21823 17.5205 7.20872 17.5215 7.1987 17.5215C5.73742 17.5053 4.5627 16.3129 4.5627 14.8216C4.5627 13.3199 5.75281 12.1226 7.22798 12.1226H7.22802ZM27.5183 12.1226C28.9935 12.1226 30.1836 13.3199 30.1836 14.8216C30.1836 16.3132 29.0089 17.5053 27.5476 17.5215C27.5378 17.5215 27.5283 17.5205 27.5183 17.5205C27.5085 17.5205 27.499 17.5215 27.489 17.5215C26.0277 17.5053 24.853 16.3129 24.853 14.8216C24.853 13.3199 26.0431 12.1226 27.5182 12.1226H27.5183ZM17.3287 16.9953C17.3434 16.9956 17.3578 16.9974 17.3727 16.9974C17.3873 16.9974 17.4017 16.9953 17.4166 16.9953C21.1039 17.019 24.0548 19.9953 24.0548 23.721L24.0546 25.5697H10.6914V23.721C10.6914 19.995 13.6414 17.019 17.3282 16.9953H17.3287ZM7.18393 18.6744C7.19858 18.6746 7.21298 18.6764 7.22789 18.6764C7.24279 18.6764 7.25693 18.6744 7.27184 18.6744C8.519 18.6844 9.65719 19.1144 10.5635 19.8339C9.91497 20.9813 9.53993 22.3058 9.53993 23.7214V25.5656H1.82522V24.1372C1.82522 21.1093 4.20596 18.698 7.1838 18.6741L7.18393 18.6744ZM27.4742 18.6744C27.4891 18.6746 27.5032 18.6764 27.5182 18.6764C27.5331 18.6764 27.5472 18.6744 27.5621 18.6744C30.5399 18.698 32.9207 21.1096 32.9207 24.1375V25.5656H25.202L25.2018 23.7214C25.2018 22.3066 24.8278 20.9831 24.1805 19.8359C25.0871 19.1154 26.2261 18.6844 27.4743 18.6744H27.4742Z" fill="#103E13"/>
</svg>
